<mxfile host="app.diagrams.net" agent="Mozilla/5.0 (Windows NT 10.0; Win64; x64) AppleWebKit/537.36 (KHTML, like Gecko) Chrome/131.0.0.0 Safari/537.36 Edg/131.0.0.0" version="25.0.3">
  <diagram id="kgpKYQtTHZ0yAKxKKP6v" name="Page-1">
    <mxGraphModel dx="1666" dy="791" grid="1" gridSize="10" guides="1" tooltips="1" connect="1" arrows="1" fold="1" page="1" pageScale="1" pageWidth="850" pageHeight="1100" math="0" shadow="0">
      <root>
        <mxCell id="0" />
        <mxCell id="1" parent="0" />
        <mxCell id="j1mRnyvPkvDkQypwrqLx-10" value="" style="endArrow=classic;html=1;rounded=0;" parent="1" edge="1">
          <mxGeometry width="50" height="50" relative="1" as="geometry">
            <mxPoint x="120" y="130" as="sourcePoint" />
            <mxPoint x="280" y="130" as="targetPoint" />
          </mxGeometry>
        </mxCell>
        <mxCell id="j1mRnyvPkvDkQypwrqLx-11" value="" style="endArrow=classic;html=1;rounded=0;exitX=0.91;exitY=1;exitDx=0;exitDy=0;exitPerimeter=0;" parent="1" source="j1mRnyvPkvDkQypwrqLx-46" edge="1">
          <mxGeometry width="50" height="50" relative="1" as="geometry">
            <mxPoint x="120" y="170" as="sourcePoint" />
            <mxPoint x="280" y="170" as="targetPoint" />
            <Array as="points">
              <mxPoint x="170" y="170" />
            </Array>
          </mxGeometry>
        </mxCell>
        <mxCell id="j1mRnyvPkvDkQypwrqLx-12" value="App: Manage Sales Orders (SAP GUI)" style="text;html=1;align=center;verticalAlign=middle;whiteSpace=wrap;rounded=0;" parent="1" vertex="1">
          <mxGeometry x="120" y="95" width="150" height="40" as="geometry" />
        </mxCell>
        <mxCell id="j1mRnyvPkvDkQypwrqLx-32" value="" style="endArrow=classic;html=1;rounded=0;entryX=1;entryY=1;entryDx=0;entryDy=0;" parent="1" target="j1mRnyvPkvDkQypwrqLx-33" edge="1">
          <mxGeometry width="50" height="50" relative="1" as="geometry">
            <mxPoint x="420" y="130" as="sourcePoint" />
            <mxPoint x="570" y="130" as="targetPoint" />
            <Array as="points" />
          </mxGeometry>
        </mxCell>
        <mxCell id="j1mRnyvPkvDkQypwrqLx-35" value="Fiori app not available" style="text;html=1;align=center;verticalAlign=middle;whiteSpace=wrap;rounded=0;" parent="1" vertex="1">
          <mxGeometry x="420" y="140" width="150" height="40" as="geometry" />
        </mxCell>
        <mxCell id="j1mRnyvPkvDkQypwrqLx-33" value="&lt;b&gt;App: Create Outbound Delivery with Order Reference (SAP GUI)&lt;/b&gt;" style="text;html=1;align=center;verticalAlign=middle;whiteSpace=wrap;rounded=0;" parent="1" vertex="1">
          <mxGeometry x="410" y="80" width="150" height="50" as="geometry" />
        </mxCell>
        <mxCell id="j1mRnyvPkvDkQypwrqLx-40" value="" style="endArrow=classic;html=1;rounded=0;exitX=1;exitY=1;exitDx=0;exitDy=0;" parent="1" edge="1">
          <mxGeometry width="50" height="50" relative="1" as="geometry">
            <mxPoint x="420" y="169" as="sourcePoint" />
            <mxPoint x="560" y="170" as="targetPoint" />
            <Array as="points" />
          </mxGeometry>
        </mxCell>
        <mxCell id="j1mRnyvPkvDkQypwrqLx-42" value="" style="strokeWidth=2;html=1;shape=mxgraph.flowchart.direct_data;whiteSpace=wrap;" parent="1" vertex="1">
          <mxGeometry x="330" y="130" width="100" height="40" as="geometry" />
        </mxCell>
        <mxCell id="j1mRnyvPkvDkQypwrqLx-43" value="Sales Order" style="text;html=1;align=center;verticalAlign=middle;whiteSpace=wrap;rounded=0;" parent="1" vertex="1">
          <mxGeometry x="265" y="40" width="80" height="30" as="geometry" />
        </mxCell>
        <mxCell id="j1mRnyvPkvDkQypwrqLx-44" value="Create Outbound&lt;div&gt;Delivery&lt;/div&gt;" style="text;html=1;align=center;verticalAlign=middle;whiteSpace=wrap;rounded=0;" parent="1" vertex="1">
          <mxGeometry x="335" y="130" width="90" height="40" as="geometry" />
        </mxCell>
        <mxCell id="j1mRnyvPkvDkQypwrqLx-45" value="" style="rounded=0;whiteSpace=wrap;html=1;" parent="1" vertex="1">
          <mxGeometry x="280" y="70" width="50" height="130" as="geometry" />
        </mxCell>
        <mxCell id="j1mRnyvPkvDkQypwrqLx-46" value="" style="strokeWidth=2;html=1;shape=mxgraph.flowchart.direct_data;whiteSpace=wrap;" parent="1" vertex="1">
          <mxGeometry x="30" y="130" width="100" height="40" as="geometry" />
        </mxCell>
        <mxCell id="j1mRnyvPkvDkQypwrqLx-47" value="Create Sales Order" style="text;html=1;align=center;verticalAlign=middle;whiteSpace=wrap;rounded=0;" parent="1" vertex="1">
          <mxGeometry x="40" y="135" width="70" height="30" as="geometry" />
        </mxCell>
        <mxCell id="j1mRnyvPkvDkQypwrqLx-48" value="" style="rounded=0;whiteSpace=wrap;html=1;" parent="1" vertex="1">
          <mxGeometry x="560" y="70" width="50" height="130" as="geometry" />
        </mxCell>
        <mxCell id="j1mRnyvPkvDkQypwrqLx-49" value="Outbound Delivery" style="text;html=1;align=center;verticalAlign=middle;whiteSpace=wrap;rounded=0;" parent="1" vertex="1">
          <mxGeometry x="545" y="30" width="80" height="30" as="geometry" />
        </mxCell>
        <mxCell id="j1mRnyvPkvDkQypwrqLx-52" value="" style="strokeWidth=2;html=1;shape=mxgraph.flowchart.direct_data;whiteSpace=wrap;" parent="1" vertex="1">
          <mxGeometry x="600" y="97.5" width="60" height="20" as="geometry" />
        </mxCell>
        <mxCell id="j1mRnyvPkvDkQypwrqLx-55" value="" style="strokeWidth=2;html=1;shape=mxgraph.flowchart.direct_data;whiteSpace=wrap;" parent="1" vertex="1">
          <mxGeometry x="600" y="137.5" width="60" height="20" as="geometry" />
        </mxCell>
        <mxCell id="j1mRnyvPkvDkQypwrqLx-56" value="" style="endArrow=classic;html=1;rounded=0;" parent="1" edge="1">
          <mxGeometry width="50" height="50" relative="1" as="geometry">
            <mxPoint x="840" y="107.5" as="sourcePoint" />
            <mxPoint x="660" y="107" as="targetPoint" />
            <Array as="points">
              <mxPoint x="710" y="107" />
            </Array>
          </mxGeometry>
        </mxCell>
        <mxCell id="j1mRnyvPkvDkQypwrqLx-57" value="App: Display Outbound Delivery (SAP GUI)" style="text;html=1;align=center;verticalAlign=middle;whiteSpace=wrap;rounded=0;" parent="1" vertex="1">
          <mxGeometry x="670" y="67.5" width="150" height="50" as="geometry" />
        </mxCell>
        <mxCell id="j1mRnyvPkvDkQypwrqLx-58" value="" style="endArrow=classic;html=1;rounded=0;" parent="1" edge="1">
          <mxGeometry width="50" height="50" relative="1" as="geometry">
            <mxPoint x="840" y="147.5" as="sourcePoint" />
            <mxPoint x="660" y="147" as="targetPoint" />
            <Array as="points">
              <mxPoint x="710" y="147" />
            </Array>
          </mxGeometry>
        </mxCell>
        <mxCell id="j1mRnyvPkvDkQypwrqLx-59" value="&lt;b&gt;App: Manage Outbound Delivery (Fiori App)&lt;/b&gt;" style="text;html=1;align=center;verticalAlign=middle;whiteSpace=wrap;rounded=0;" parent="1" vertex="1">
          <mxGeometry x="670" y="107.5" width="150" height="50" as="geometry" />
        </mxCell>
        <mxCell id="j1mRnyvPkvDkQypwrqLx-13" value="&lt;b&gt;App: Manage Sales Orders version 2 (Fiori)&lt;/b&gt;" style="text;html=1;align=center;verticalAlign=middle;whiteSpace=wrap;rounded=0;" parent="1" vertex="1">
          <mxGeometry x="130" y="135" width="150" height="40" as="geometry" />
        </mxCell>
        <mxCell id="j1mRnyvPkvDkQypwrqLx-62" value="&lt;font style=&quot;font-size: 10px;&quot;&gt;Disp/Edit&lt;/font&gt;" style="text;html=1;align=center;verticalAlign=middle;whiteSpace=wrap;rounded=0;" parent="1" vertex="1">
          <mxGeometry x="600" y="92.5" width="50" height="30" as="geometry" />
        </mxCell>
        <mxCell id="j1mRnyvPkvDkQypwrqLx-63" value="&lt;font style=&quot;font-size: 10px;&quot;&gt;Disp/Edit&lt;/font&gt;" style="text;html=1;align=center;verticalAlign=middle;whiteSpace=wrap;rounded=0;" parent="1" vertex="1">
          <mxGeometry x="600" y="132.5" width="50" height="30" as="geometry" />
        </mxCell>
        <mxCell id="j1mRnyvPkvDkQypwrqLx-66" value="173" style="text;html=1;align=center;verticalAlign=middle;whiteSpace=wrap;rounded=0;" parent="1" vertex="1">
          <mxGeometry x="290" y="70" width="30" height="20" as="geometry" />
        </mxCell>
        <mxCell id="j1mRnyvPkvDkQypwrqLx-67" value="&lt;font style=&quot;font-size: 10px;&quot;&gt;80000142&lt;/font&gt;" style="text;html=1;align=center;verticalAlign=middle;whiteSpace=wrap;rounded=0;" parent="1" vertex="1">
          <mxGeometry x="560" y="70" width="50" height="20" as="geometry" />
        </mxCell>
        <mxCell id="j1mRnyvPkvDkQypwrqLx-68" value="" style="ellipse;shape=cloud;whiteSpace=wrap;html=1;fillColor=#000000;" parent="1" vertex="1">
          <mxGeometry x="140" y="280" width="240" height="190" as="geometry" />
        </mxCell>
        <mxCell id="j1mRnyvPkvDkQypwrqLx-69" value="" style="endArrow=classic;html=1;rounded=0;exitX=0.5;exitY=1;exitDx=0;exitDy=0;" parent="1" source="j1mRnyvPkvDkQypwrqLx-45" edge="1">
          <mxGeometry width="50" height="50" relative="1" as="geometry">
            <mxPoint x="304.5" y="240" as="sourcePoint" />
            <mxPoint x="305" y="310" as="targetPoint" />
            <Array as="points">
              <mxPoint x="304.5" y="250" />
            </Array>
          </mxGeometry>
        </mxCell>
        <mxCell id="j1mRnyvPkvDkQypwrqLx-79" value="" style="rounded=0;whiteSpace=wrap;html=1;" parent="1" vertex="1">
          <mxGeometry x="410" y="295" width="50" height="140" as="geometry" />
        </mxCell>
        <mxCell id="j1mRnyvPkvDkQypwrqLx-80" value="Freight Unit" style="text;html=1;align=center;verticalAlign=middle;whiteSpace=wrap;rounded=0;" parent="1" vertex="1">
          <mxGeometry x="395" y="270" width="80" height="30" as="geometry" />
        </mxCell>
        <mxCell id="-rsgQfvM1jwX3Xb7sSTc-7" value="" style="endArrow=classic;html=1;rounded=0;exitX=0.917;exitY=0.374;exitDx=0;exitDy=0;exitPerimeter=0;" parent="1" edge="1" source="j1mRnyvPkvDkQypwrqLx-68">
          <mxGeometry width="50" height="50" relative="1" as="geometry">
            <mxPoint x="370" y="349.5" as="sourcePoint" />
            <mxPoint x="410" y="350" as="targetPoint" />
          </mxGeometry>
        </mxCell>
        <mxCell id="kXej1jwr_fjgFETPGRHr-1" value="" style="shape=process;whiteSpace=wrap;html=1;backgroundOutline=1;" vertex="1" parent="1">
          <mxGeometry x="195" y="340" width="140" height="50" as="geometry" />
        </mxCell>
        <mxCell id="kXej1jwr_fjgFETPGRHr-2" value="BADI_ ??" style="text;html=1;align=center;verticalAlign=middle;whiteSpace=wrap;rounded=0;" vertex="1" parent="1">
          <mxGeometry x="215" y="350" width="105" height="30" as="geometry" />
        </mxCell>
        <mxCell id="kXej1jwr_fjgFETPGRHr-9" value="" style="endArrow=classic;html=1;rounded=0;" edge="1" parent="1">
          <mxGeometry width="50" height="50" relative="1" as="geometry">
            <mxPoint x="590" y="350" as="sourcePoint" />
            <mxPoint x="590" y="210" as="targetPoint" />
            <Array as="points">
              <mxPoint x="590" y="260" />
            </Array>
          </mxGeometry>
        </mxCell>
        <mxCell id="kXej1jwr_fjgFETPGRHr-10" value="" style="endArrow=none;html=1;rounded=0;exitX=1.04;exitY=0.393;exitDx=0;exitDy=0;exitPerimeter=0;" edge="1" parent="1" source="j1mRnyvPkvDkQypwrqLx-79">
          <mxGeometry width="50" height="50" relative="1" as="geometry">
            <mxPoint x="470" y="350" as="sourcePoint" />
            <mxPoint x="590" y="350" as="targetPoint" />
          </mxGeometry>
        </mxCell>
        <mxCell id="kXej1jwr_fjgFETPGRHr-11" value="&lt;div&gt;&lt;b&gt;&amp;lt;&amp;lt; automated&amp;gt;&amp;gt;&lt;/b&gt;&lt;/div&gt;SPRO. Log&amp;amp;Trans&lt;div&gt;Transportation Relevance of Sales Doc.&lt;/div&gt;" style="text;html=1;align=center;verticalAlign=middle;whiteSpace=wrap;rounded=0;" vertex="1" parent="1">
          <mxGeometry x="190" y="200" width="230" height="60" as="geometry" />
        </mxCell>
      </root>
    </mxGraphModel>
  </diagram>
</mxfile>
